<mxfile host="Electron" modified="2024-10-08T04:23:41.029Z" agent="Mozilla/5.0 (Windows NT 10.0; Win64; x64) AppleWebKit/537.36 (KHTML, like Gecko) draw.io/24.4.0 Chrome/120.0.6099.109 Electron/28.1.0 Safari/537.36" etag="giZ1o4HNiAUjGNLu4sPr" version="24.4.0" type="device" pages="2">
  <diagram name="Phase 1 - System Diagram" id="J5LnSP3ed8x8mi4pehuG">
    <mxGraphModel dx="1434" dy="836" grid="0" gridSize="10" guides="1" tooltips="1" connect="1" arrows="1" fold="1" page="1" pageScale="1" pageWidth="850" pageHeight="1100" background="none" math="0" shadow="0">
      <root>
        <mxCell id="0" />
        <mxCell id="1" parent="0" />
        <mxCell id="tYMygZ-SI040A9pv8XgX-34" value="Development Environment" style="text;html=1;align=center;verticalAlign=middle;whiteSpace=wrap;rounded=0;shadow=1;fontSize=18;" vertex="1" parent="1">
          <mxGeometry x="242" y="230" width="220" height="30" as="geometry" />
        </mxCell>
        <mxCell id="tYMygZ-SI040A9pv8XgX-18" value="" style="rounded=0;whiteSpace=wrap;html=1;" vertex="1" parent="1">
          <mxGeometry x="77" y="280" width="550" height="530" as="geometry" />
        </mxCell>
        <mxCell id="iwxivgH-UlOiyFm9MQiw-2" value="Webservice" style="rounded=0;whiteSpace=wrap;html=1;horizontal=1;verticalAlign=top;" vertex="1" parent="1">
          <mxGeometry x="247" y="350" width="340" height="320" as="geometry" />
        </mxCell>
        <mxCell id="iwxivgH-UlOiyFm9MQiw-8" style="edgeStyle=orthogonalEdgeStyle;rounded=0;orthogonalLoop=1;jettySize=auto;html=1;entryX=0;entryY=0.5;entryDx=0;entryDy=0;" edge="1" parent="1" source="iwxivgH-UlOiyFm9MQiw-7" target="iwxivgH-UlOiyFm9MQiw-2">
          <mxGeometry relative="1" as="geometry" />
        </mxCell>
        <mxCell id="iwxivgH-UlOiyFm9MQiw-7" value="Actor" style="shape=umlActor;verticalLabelPosition=bottom;verticalAlign=top;html=1;outlineConnect=0;" vertex="1" parent="1">
          <mxGeometry x="107" y="480" width="30" height="60" as="geometry" />
        </mxCell>
        <mxCell id="iwxivgH-UlOiyFm9MQiw-9" style="edgeStyle=orthogonalEdgeStyle;rounded=0;orthogonalLoop=1;jettySize=auto;html=1;entryX=0.5;entryY=0.5;entryDx=0;entryDy=0;entryPerimeter=0;" edge="1" parent="1" source="iwxivgH-UlOiyFm9MQiw-2" target="iwxivgH-UlOiyFm9MQiw-7">
          <mxGeometry relative="1" as="geometry" />
        </mxCell>
        <mxCell id="tYMygZ-SI040A9pv8XgX-6" style="edgeStyle=orthogonalEdgeStyle;rounded=0;orthogonalLoop=1;jettySize=auto;html=1;exitX=1;exitY=0.5;exitDx=0;exitDy=0;entryX=0;entryY=0.5;entryDx=0;entryDy=0;" edge="1" parent="1" source="tYMygZ-SI040A9pv8XgX-4" target="tYMygZ-SI040A9pv8XgX-5">
          <mxGeometry relative="1" as="geometry" />
        </mxCell>
        <mxCell id="tYMygZ-SI040A9pv8XgX-4" value="Streamlit" style="rounded=1;whiteSpace=wrap;html=1;" vertex="1" parent="1">
          <mxGeometry x="277" y="410" width="120" height="230" as="geometry" />
        </mxCell>
        <mxCell id="tYMygZ-SI040A9pv8XgX-13" style="edgeStyle=orthogonalEdgeStyle;rounded=0;orthogonalLoop=1;jettySize=auto;html=1;entryX=0;entryY=0.5;entryDx=0;entryDy=0;" edge="1" parent="1" source="tYMygZ-SI040A9pv8XgX-5" target="tYMygZ-SI040A9pv8XgX-12">
          <mxGeometry relative="1" as="geometry" />
        </mxCell>
        <mxCell id="tYMygZ-SI040A9pv8XgX-5" value="Sentiment Analysis&lt;div&gt;Service&lt;/div&gt;" style="rounded=1;whiteSpace=wrap;html=1;" vertex="1" parent="1">
          <mxGeometry x="437" y="410" width="120" height="230" as="geometry" />
        </mxCell>
        <mxCell id="tYMygZ-SI040A9pv8XgX-8" value="DB" style="strokeWidth=2;html=1;shape=mxgraph.flowchart.database;whiteSpace=wrap;" vertex="1" parent="1">
          <mxGeometry x="467" y="730" width="60" height="60" as="geometry" />
        </mxCell>
        <mxCell id="tYMygZ-SI040A9pv8XgX-9" style="edgeStyle=orthogonalEdgeStyle;rounded=0;orthogonalLoop=1;jettySize=auto;html=1;entryX=0.5;entryY=1;entryDx=0;entryDy=0;" edge="1" parent="1" source="tYMygZ-SI040A9pv8XgX-8" target="tYMygZ-SI040A9pv8XgX-4">
          <mxGeometry relative="1" as="geometry" />
        </mxCell>
        <mxCell id="tYMygZ-SI040A9pv8XgX-10" style="edgeStyle=orthogonalEdgeStyle;rounded=0;orthogonalLoop=1;jettySize=auto;html=1;exitX=0.5;exitY=1;exitDx=0;exitDy=0;entryX=0.5;entryY=0;entryDx=0;entryDy=0;entryPerimeter=0;" edge="1" parent="1" source="tYMygZ-SI040A9pv8XgX-5" target="tYMygZ-SI040A9pv8XgX-8">
          <mxGeometry relative="1" as="geometry" />
        </mxCell>
        <mxCell id="tYMygZ-SI040A9pv8XgX-14" style="edgeStyle=orthogonalEdgeStyle;rounded=0;orthogonalLoop=1;jettySize=auto;html=1;entryX=1;entryY=0.5;entryDx=0;entryDy=0;" edge="1" parent="1" source="tYMygZ-SI040A9pv8XgX-12" target="tYMygZ-SI040A9pv8XgX-5">
          <mxGeometry relative="1" as="geometry" />
        </mxCell>
        <mxCell id="tYMygZ-SI040A9pv8XgX-12" value="GPT Server" style="ellipse;whiteSpace=wrap;html=1;" vertex="1" parent="1">
          <mxGeometry x="667" y="485" width="120" height="80" as="geometry" />
        </mxCell>
        <mxCell id="tYMygZ-SI040A9pv8XgX-15" value="&lt;font style=&quot;font-size: 18px;&quot;&gt;LocalPC - Windows11&lt;/font&gt;" style="text;html=1;align=center;verticalAlign=middle;whiteSpace=wrap;rounded=0;" vertex="1" parent="1">
          <mxGeometry x="87" y="300" width="230" height="30" as="geometry" />
        </mxCell>
        <mxCell id="tYMygZ-SI040A9pv8XgX-19" value="" style="rounded=0;whiteSpace=wrap;html=1;" vertex="1" parent="1">
          <mxGeometry x="1026" y="280" width="440" height="530" as="geometry" />
        </mxCell>
        <mxCell id="tYMygZ-SI040A9pv8XgX-20" value="Webservice" style="rounded=0;whiteSpace=wrap;html=1;horizontal=1;verticalAlign=top;" vertex="1" parent="1">
          <mxGeometry x="1086" y="350" width="340" height="320" as="geometry" />
        </mxCell>
        <mxCell id="tYMygZ-SI040A9pv8XgX-21" style="edgeStyle=orthogonalEdgeStyle;rounded=0;orthogonalLoop=1;jettySize=auto;html=1;entryX=0;entryY=0.5;entryDx=0;entryDy=0;" edge="1" parent="1" source="tYMygZ-SI040A9pv8XgX-22" target="tYMygZ-SI040A9pv8XgX-20">
          <mxGeometry relative="1" as="geometry" />
        </mxCell>
        <mxCell id="tYMygZ-SI040A9pv8XgX-22" value="Actor" style="shape=umlActor;verticalLabelPosition=bottom;verticalAlign=top;html=1;outlineConnect=0;" vertex="1" parent="1">
          <mxGeometry x="946" y="480" width="30" height="60" as="geometry" />
        </mxCell>
        <mxCell id="tYMygZ-SI040A9pv8XgX-24" style="edgeStyle=orthogonalEdgeStyle;rounded=0;orthogonalLoop=1;jettySize=auto;html=1;exitX=1;exitY=0.5;exitDx=0;exitDy=0;entryX=0;entryY=0.5;entryDx=0;entryDy=0;" edge="1" parent="1" source="tYMygZ-SI040A9pv8XgX-25" target="tYMygZ-SI040A9pv8XgX-27">
          <mxGeometry relative="1" as="geometry" />
        </mxCell>
        <mxCell id="tYMygZ-SI040A9pv8XgX-25" value="Streamlit" style="rounded=1;whiteSpace=wrap;html=1;" vertex="1" parent="1">
          <mxGeometry x="1116" y="410" width="120" height="230" as="geometry" />
        </mxCell>
        <mxCell id="tYMygZ-SI040A9pv8XgX-26" style="edgeStyle=orthogonalEdgeStyle;rounded=0;orthogonalLoop=1;jettySize=auto;html=1;entryX=0;entryY=0.5;entryDx=0;entryDy=0;" edge="1" parent="1" source="tYMygZ-SI040A9pv8XgX-27" target="tYMygZ-SI040A9pv8XgX-32">
          <mxGeometry relative="1" as="geometry" />
        </mxCell>
        <mxCell id="tYMygZ-SI040A9pv8XgX-27" value="Sentiment Analysis&lt;div&gt;Service&lt;/div&gt;" style="rounded=1;whiteSpace=wrap;html=1;" vertex="1" parent="1">
          <mxGeometry x="1276" y="410" width="120" height="230" as="geometry" />
        </mxCell>
        <mxCell id="tYMygZ-SI040A9pv8XgX-28" value="DB" style="strokeWidth=2;html=1;shape=mxgraph.flowchart.database;whiteSpace=wrap;" vertex="1" parent="1">
          <mxGeometry x="1306" y="730" width="60" height="60" as="geometry" />
        </mxCell>
        <mxCell id="tYMygZ-SI040A9pv8XgX-29" style="edgeStyle=orthogonalEdgeStyle;rounded=0;orthogonalLoop=1;jettySize=auto;html=1;entryX=0.5;entryY=1;entryDx=0;entryDy=0;" edge="1" parent="1" source="tYMygZ-SI040A9pv8XgX-28" target="tYMygZ-SI040A9pv8XgX-25">
          <mxGeometry relative="1" as="geometry" />
        </mxCell>
        <mxCell id="tYMygZ-SI040A9pv8XgX-30" style="edgeStyle=orthogonalEdgeStyle;rounded=0;orthogonalLoop=1;jettySize=auto;html=1;exitX=0.5;exitY=1;exitDx=0;exitDy=0;entryX=0.5;entryY=0;entryDx=0;entryDy=0;entryPerimeter=0;" edge="1" parent="1" source="tYMygZ-SI040A9pv8XgX-27" target="tYMygZ-SI040A9pv8XgX-28">
          <mxGeometry relative="1" as="geometry" />
        </mxCell>
        <mxCell id="tYMygZ-SI040A9pv8XgX-31" style="edgeStyle=orthogonalEdgeStyle;rounded=0;orthogonalLoop=1;jettySize=auto;html=1;entryX=1;entryY=0.5;entryDx=0;entryDy=0;" edge="1" parent="1" source="tYMygZ-SI040A9pv8XgX-32" target="tYMygZ-SI040A9pv8XgX-27">
          <mxGeometry relative="1" as="geometry" />
        </mxCell>
        <mxCell id="tYMygZ-SI040A9pv8XgX-32" value="GPT Server" style="ellipse;whiteSpace=wrap;html=1;" vertex="1" parent="1">
          <mxGeometry x="1506" y="485" width="120" height="80" as="geometry" />
        </mxCell>
        <mxCell id="tYMygZ-SI040A9pv8XgX-35" value="&lt;div&gt;Deployment (Cloud) Environment&lt;/div&gt;" style="text;html=1;align=center;verticalAlign=middle;whiteSpace=wrap;rounded=0;shadow=1;fontSize=18;" vertex="1" parent="1">
          <mxGeometry x="1018.5" y="230" width="315" height="30" as="geometry" />
        </mxCell>
        <mxCell id="tYMygZ-SI040A9pv8XgX-38" value="&lt;font style=&quot;font-size: 18px;&quot;&gt;Cloud -&amp;nbsp;&lt;/font&gt;&lt;span style=&quot;font-size: 18px;&quot;&gt;Streamlit&amp;nbsp;Cloud&lt;/span&gt;" style="text;html=1;align=center;verticalAlign=middle;whiteSpace=wrap;rounded=0;" vertex="1" parent="1">
          <mxGeometry x="1036" y="300" width="240" height="30" as="geometry" />
        </mxCell>
        <mxCell id="tYMygZ-SI040A9pv8XgX-41" value="SqlLite" style="text;html=1;align=center;verticalAlign=middle;resizable=0;points=[];autosize=1;strokeColor=none;fillColor=none;fontStyle=3" vertex="1" parent="1">
          <mxGeometry x="467" y="760" width="60" height="30" as="geometry" />
        </mxCell>
        <mxCell id="tYMygZ-SI040A9pv8XgX-42" value="SqlLite" style="text;html=1;align=center;verticalAlign=middle;resizable=0;points=[];autosize=1;strokeColor=none;fillColor=none;fontStyle=3" vertex="1" parent="1">
          <mxGeometry x="1306" y="760" width="60" height="30" as="geometry" />
        </mxCell>
        <mxCell id="tYMygZ-SI040A9pv8XgX-43" value="Python" style="text;html=1;align=center;verticalAlign=middle;whiteSpace=wrap;rounded=0;fontStyle=3" vertex="1" parent="1">
          <mxGeometry x="307" y="420" width="60" height="30" as="geometry" />
        </mxCell>
        <mxCell id="tYMygZ-SI040A9pv8XgX-44" value="Python" style="text;html=1;align=center;verticalAlign=middle;whiteSpace=wrap;rounded=0;fontStyle=3" vertex="1" parent="1">
          <mxGeometry x="467" y="420" width="60" height="30" as="geometry" />
        </mxCell>
        <mxCell id="tYMygZ-SI040A9pv8XgX-45" value="Python" style="text;html=1;align=center;verticalAlign=middle;whiteSpace=wrap;rounded=0;fontStyle=3" vertex="1" parent="1">
          <mxGeometry x="1146" y="420" width="60" height="30" as="geometry" />
        </mxCell>
        <mxCell id="tYMygZ-SI040A9pv8XgX-46" value="Python" style="text;html=1;align=center;verticalAlign=middle;whiteSpace=wrap;rounded=0;fontStyle=3" vertex="1" parent="1">
          <mxGeometry x="1306" y="420" width="60" height="30" as="geometry" />
        </mxCell>
        <mxCell id="tYMygZ-SI040A9pv8XgX-50" style="rounded=0;orthogonalLoop=1;jettySize=auto;html=1;" edge="1" parent="1" source="tYMygZ-SI040A9pv8XgX-47">
          <mxGeometry relative="1" as="geometry">
            <mxPoint x="1086" y="509.9999999999998" as="targetPoint" />
          </mxGeometry>
        </mxCell>
        <mxCell id="tYMygZ-SI040A9pv8XgX-47" value="Actor" style="shape=umlActor;verticalLabelPosition=bottom;verticalAlign=top;html=1;outlineConnect=0;" vertex="1" parent="1">
          <mxGeometry x="946" y="590" width="30" height="60" as="geometry" />
        </mxCell>
        <mxCell id="tYMygZ-SI040A9pv8XgX-49" style="rounded=0;orthogonalLoop=1;jettySize=auto;html=1;entryX=0;entryY=0.5;entryDx=0;entryDy=0;" edge="1" parent="1" source="tYMygZ-SI040A9pv8XgX-48" target="tYMygZ-SI040A9pv8XgX-20">
          <mxGeometry relative="1" as="geometry" />
        </mxCell>
        <mxCell id="tYMygZ-SI040A9pv8XgX-48" value="Actor" style="shape=umlActor;verticalLabelPosition=bottom;verticalAlign=top;html=1;outlineConnect=0;" vertex="1" parent="1">
          <mxGeometry x="946" y="390" width="30" height="60" as="geometry" />
        </mxCell>
      </root>
    </mxGraphModel>
  </diagram>
  <diagram id="UXuVuNEGiRgKPQUiIriJ" name="Frontend Wireframe">
    <mxGraphModel dx="1687" dy="2084" grid="1" gridSize="10" guides="1" tooltips="1" connect="1" arrows="1" fold="1" page="1" pageScale="1" pageWidth="850" pageHeight="1100" math="0" shadow="0">
      <root>
        <mxCell id="0" />
        <mxCell id="1" parent="0" />
        <mxCell id="a3Yw_3tdQrMZSlkk8djQ-1" value="" style="rounded=0;whiteSpace=wrap;html=1;" vertex="1" parent="1">
          <mxGeometry x="140" y="160" width="630" height="410" as="geometry" />
        </mxCell>
        <mxCell id="a3Yw_3tdQrMZSlkk8djQ-2" value="HS" style="rounded=0;whiteSpace=wrap;html=1;" vertex="1" parent="1">
          <mxGeometry x="160" y="200" width="40" height="40" as="geometry" />
        </mxCell>
        <mxCell id="a3Yw_3tdQrMZSlkk8djQ-3" value="" style="rounded=0;whiteSpace=wrap;html=1;" vertex="1" parent="1">
          <mxGeometry x="250" y="200" width="200" height="150" as="geometry" />
        </mxCell>
        <mxCell id="a3Yw_3tdQrMZSlkk8djQ-4" value="SK" style="rounded=0;whiteSpace=wrap;html=1;" vertex="1" parent="1">
          <mxGeometry x="500" y="200" width="200" height="150" as="geometry" />
        </mxCell>
        <mxCell id="a3Yw_3tdQrMZSlkk8djQ-5" value="SG" style="rounded=0;whiteSpace=wrap;html=1;" vertex="1" parent="1">
          <mxGeometry x="250" y="380" width="200" height="150" as="geometry" />
        </mxCell>
        <mxCell id="a3Yw_3tdQrMZSlkk8djQ-6" value="VN" style="rounded=0;whiteSpace=wrap;html=1;" vertex="1" parent="1">
          <mxGeometry x="500" y="380" width="200" height="150" as="geometry" />
        </mxCell>
        <mxCell id="a3Yw_3tdQrMZSlkk8djQ-7" value="HK Total" style="rounded=0;whiteSpace=wrap;html=1;" vertex="1" parent="1">
          <mxGeometry x="260" y="210" width="90" height="60" as="geometry" />
        </mxCell>
        <mxCell id="a3Yw_3tdQrMZSlkk8djQ-9" value="HK Housing" style="rounded=0;whiteSpace=wrap;html=1;" vertex="1" parent="1">
          <mxGeometry x="360" y="210" width="80" height="60" as="geometry" />
        </mxCell>
        <mxCell id="a3Yw_3tdQrMZSlkk8djQ-10" value="HK IPO" style="rounded=0;whiteSpace=wrap;html=1;" vertex="1" parent="1">
          <mxGeometry x="360" y="280" width="80" height="60" as="geometry" />
        </mxCell>
        <mxCell id="a3Yw_3tdQrMZSlkk8djQ-11" value="HK Stock" style="rounded=0;whiteSpace=wrap;html=1;" vertex="1" parent="1">
          <mxGeometry x="260" y="280" width="90" height="60" as="geometry" />
        </mxCell>
        <mxCell id="a3Yw_3tdQrMZSlkk8djQ-12" value="Hong Kong" style="text;html=1;align=center;verticalAlign=middle;whiteSpace=wrap;rounded=0;" vertex="1" parent="1">
          <mxGeometry x="250" y="170" width="70" height="30" as="geometry" />
        </mxCell>
        <mxCell id="a3Yw_3tdQrMZSlkk8djQ-13" value="Final Version" style="text;html=1;align=center;verticalAlign=middle;whiteSpace=wrap;rounded=0;" vertex="1" parent="1">
          <mxGeometry x="140" y="120" width="60" height="30" as="geometry" />
        </mxCell>
        <mxCell id="a3Yw_3tdQrMZSlkk8djQ-14" value="" style="rounded=0;whiteSpace=wrap;html=1;" vertex="1" parent="1">
          <mxGeometry x="140" y="-360" width="630" height="410" as="geometry" />
        </mxCell>
        <mxCell id="a3Yw_3tdQrMZSlkk8djQ-15" value="HS" style="rounded=0;whiteSpace=wrap;html=1;" vertex="1" parent="1">
          <mxGeometry x="160" y="-320" width="40" height="40" as="geometry" />
        </mxCell>
        <mxCell id="a3Yw_3tdQrMZSlkk8djQ-16" value="HK Stock" style="rounded=0;whiteSpace=wrap;html=1;" vertex="1" parent="1">
          <mxGeometry x="250" y="-320" width="490" height="340" as="geometry" />
        </mxCell>
        <mxCell id="a3Yw_3tdQrMZSlkk8djQ-24" value="Hong Kong" style="text;html=1;align=center;verticalAlign=middle;whiteSpace=wrap;rounded=0;" vertex="1" parent="1">
          <mxGeometry x="250" y="-350" width="70" height="30" as="geometry" />
        </mxCell>
        <mxCell id="a3Yw_3tdQrMZSlkk8djQ-25" value="Version 1" style="text;html=1;align=center;verticalAlign=middle;whiteSpace=wrap;rounded=0;" vertex="1" parent="1">
          <mxGeometry x="140" y="-400" width="60" height="30" as="geometry" />
        </mxCell>
      </root>
    </mxGraphModel>
  </diagram>
</mxfile>
